<?xml version="1.0" encoding="utf-8"?>
<!-- Generator: Adobe Illustrator 24.0.2, SVG Export Plug-In . SVG Version: 6.00 Build 0)  -->
<svg version="1.1" id="Logo" xmlns="http://www.w3.org/2000/svg" xmlns:xlink="http://www.w3.org/1999/xlink" x="0px" y="0px"
	 viewBox="0 0 449.33 86.67" style="enable-background:new 0 0 449.33 86.67;" xml:space="preserve">
<style type="text/css">
	.st0{fill:none;stroke:#FFFFFF;stroke-width:5;stroke-miterlimit:10;}
	.st1{fill:#FFFFFF;}
	.st2{fill:#FFFFFF;stroke:#FFFFFF;stroke-miterlimit:10;}
</style>
<g>
	<g>
		<g>
			<path class="st0" d="M60.34,47.12c-6.26,6.26-16.4,6.26-22.66,0c-6.26-6.26-6.26-16.4,0-22.66c6.26-6.26,16.4-6.26,22.66,0"/>
			<polyline class="st0" points="23.87,17.55 5.63,35.79 49.01,79.18 70.7,57.49 			"/>
		</g>
		<g>
			<path class="st0" d="M60.34,24.47c-6.26-6.26-16.4-6.26-22.66,0"/>
			<path class="st0" d="M37.68,47.12c6.26,6.26,16.4,6.26,22.66,0"/>
			<path class="st0" d="M37.68,24.47L15.99,46.16l11.33,11.33c11.98,11.98,31.4,11.98,43.38,0v0c11.98-11.98,11.98-31.4,0-43.38v0
				c-11.98-11.98-31.4-11.98-43.38,0L5.63,35.79"/>
		</g>
	</g>
	<g>
		<path class="st1" d="M126.95,48.01c0.16,0,0.31,0.07,0.45,0.2l1.17,1.28c-0.91,1.05-2,1.87-3.3,2.46
			c-1.29,0.59-2.85,0.88-4.67,0.88c-1.6,0-3.04-0.28-4.34-0.83c-1.3-0.55-2.4-1.32-3.32-2.32c-0.92-0.99-1.63-2.19-2.13-3.57
			s-0.76-2.92-0.76-4.59s0.27-3.2,0.81-4.59s1.3-2.58,2.28-3.58s2.15-1.77,3.51-2.32s2.87-0.83,4.52-0.83
			c1.63,0,3.03,0.25,4.21,0.76c1.18,0.5,2.23,1.19,3.14,2.05l-0.97,1.37c-0.07,0.1-0.15,0.19-0.25,0.25c-0.09,0.07-0.23,0.1-0.4,0.1
			c-0.13,0-0.28-0.05-0.42-0.15c-0.15-0.1-0.33-0.22-0.53-0.36c-0.21-0.14-0.45-0.3-0.73-0.46c-0.28-0.16-0.61-0.32-0.99-0.46
			c-0.38-0.14-0.82-0.27-1.33-0.36s-1.09-0.15-1.74-0.15c-1.18,0-2.27,0.2-3.25,0.61c-0.98,0.41-1.83,0.99-2.54,1.74
			c-0.71,0.75-1.26,1.67-1.66,2.75c-0.4,1.08-0.59,2.29-0.59,3.63c0,1.38,0.2,2.61,0.59,3.69c0.4,1.08,0.94,1.99,1.62,2.74
			c0.68,0.75,1.5,1.32,2.43,1.71c0.94,0.39,1.95,0.59,3.03,0.59c0.66,0,1.25-0.04,1.78-0.12c0.52-0.08,1.01-0.2,1.46-0.36
			s0.86-0.37,1.25-0.63c0.39-0.25,0.77-0.55,1.17-0.9C126.61,48.09,126.78,48.01,126.95,48.01z"/>
		<path class="st1" d="M157.69,41.53c0,1.66-0.26,3.18-0.79,4.56c-0.52,1.38-1.27,2.58-2.22,3.57c-0.96,1-2.11,1.77-3.45,2.32
			s-2.83,0.83-4.45,0.83s-3.11-0.27-4.45-0.83c-1.34-0.55-2.49-1.33-3.44-2.32c-0.96-1-1.7-2.19-2.22-3.57
			c-0.52-1.38-0.79-2.91-0.79-4.56s0.26-3.18,0.79-4.56c0.52-1.38,1.27-2.58,2.22-3.58c0.96-1,2.1-1.78,3.44-2.34
			c1.34-0.56,2.82-0.83,4.45-0.83s3.11,0.28,4.45,0.83c1.34,0.56,2.49,1.34,3.45,2.34c0.96,1,1.7,2.2,2.22,3.58
			C157.43,38.35,157.69,39.87,157.69,41.53z M154.62,41.53c0-1.36-0.19-2.58-0.56-3.66c-0.37-1.08-0.9-1.99-1.58-2.74
			c-0.68-0.75-1.5-1.32-2.47-1.72c-0.97-0.4-2.05-0.6-3.24-0.6c-1.18,0-2.26,0.2-3.23,0.6s-1.79,0.98-2.48,1.72
			c-0.68,0.75-1.21,1.66-1.58,2.74c-0.37,1.08-0.56,2.3-0.56,3.66s0.19,2.58,0.56,3.65c0.37,1.08,0.9,1.99,1.58,2.73
			c0.68,0.75,1.51,1.32,2.48,1.71c0.97,0.4,2.04,0.59,3.23,0.59c1.19,0,2.27-0.2,3.24-0.59c0.97-0.4,1.79-0.97,2.47-1.71
			c0.68-0.75,1.2-1.66,1.58-2.73C154.43,44.1,154.62,42.89,154.62,41.53z"/>
		<path class="st1" d="M168.55,30.56c0.13,0.07,0.28,0.2,0.44,0.41l12.82,16.68c-0.03-0.27-0.05-0.53-0.06-0.78
			c-0.01-0.25-0.02-0.5-0.02-0.73V30.46h2.63v22.13h-1.51c-0.24,0-0.44-0.04-0.59-0.12c-0.16-0.08-0.32-0.22-0.47-0.42l-12.8-16.66
			c0.02,0.26,0.04,0.51,0.05,0.76s0.02,0.47,0.02,0.68v15.76h-2.63V30.46h1.54C168.23,30.46,168.42,30.49,168.55,30.56z"/>
		<path class="st1" d="M205.73,33.91c-0.09,0.15-0.19,0.27-0.29,0.35c-0.1,0.08-0.24,0.12-0.4,0.12c-0.18,0-0.38-0.09-0.61-0.26
			c-0.23-0.17-0.53-0.37-0.88-0.58c-0.35-0.21-0.78-0.4-1.28-0.58c-0.5-0.18-1.1-0.26-1.81-0.26c-0.67,0-1.26,0.09-1.78,0.27
			c-0.51,0.18-0.94,0.42-1.29,0.73c-0.35,0.31-0.6,0.67-0.78,1.09c-0.18,0.42-0.26,0.87-0.26,1.35c0,0.62,0.15,1.13,0.46,1.54
			c0.3,0.41,0.71,0.75,1.2,1.04c0.5,0.29,1.07,0.54,1.7,0.75c0.63,0.21,1.28,0.43,1.95,0.66c0.66,0.23,1.31,0.48,1.95,0.76
			c0.63,0.28,1.2,0.64,1.7,1.07c0.5,0.43,0.9,0.96,1.2,1.59c0.3,0.63,0.46,1.4,0.46,2.32c0,0.97-0.17,1.88-0.49,2.73
			c-0.33,0.85-0.81,1.59-1.44,2.22c-0.63,0.63-1.41,1.12-2.33,1.48c-0.92,0.36-1.97,0.54-3.14,0.54c-1.43,0-2.74-0.26-3.91-0.78
			c-1.18-0.52-2.18-1.22-3.02-2.11l0.86-1.42c0.08-0.11,0.18-0.21,0.3-0.29c0.12-0.08,0.25-0.12,0.39-0.12
			c0.22,0,0.46,0.12,0.74,0.35c0.28,0.23,0.63,0.49,1.04,0.76s0.92,0.53,1.51,0.76c0.59,0.23,1.31,0.35,2.17,0.35
			c0.71,0,1.34-0.1,1.9-0.29c0.56-0.2,1.03-0.47,1.41-0.83c0.39-0.35,0.68-0.78,0.89-1.27c0.21-0.49,0.31-1.04,0.31-1.65
			c0-0.67-0.15-1.22-0.46-1.64c-0.3-0.43-0.7-0.78-1.2-1.07c-0.49-0.29-1.06-0.53-1.69-0.73c-0.63-0.2-1.28-0.41-1.95-0.62
			s-1.31-0.46-1.95-0.73c-0.63-0.28-1.2-0.64-1.69-1.08c-0.49-0.44-0.89-1-1.2-1.66c-0.3-0.66-0.46-1.48-0.46-2.46
			c0-0.78,0.15-1.54,0.46-2.27s0.74-1.38,1.32-1.95c0.58-0.57,1.29-1.02,2.14-1.36c0.85-0.34,1.82-0.51,2.93-0.51
			c1.24,0,2.36,0.2,3.38,0.59s1.91,0.96,2.67,1.7L205.73,33.91z"/>
		<path class="st1" d="M230.46,30.46v2.52h-7.15v19.61h-3V32.97h-7.18v-2.52H230.46z"/>
		<path class="st1" d="M241.53,43.35v9.23h-2.98V30.46h6.25c1.4,0,2.61,0.14,3.63,0.42c1.02,0.28,1.86,0.69,2.52,1.23
			c0.66,0.54,1.16,1.18,1.47,1.94s0.48,1.6,0.48,2.54c0,0.78-0.12,1.51-0.37,2.19s-0.6,1.29-1.07,1.83c-0.47,0.54-1.04,1-1.71,1.38
			c-0.67,0.38-1.44,0.67-2.29,0.86c0.37,0.22,0.7,0.53,0.99,0.94l6.45,8.79h-2.66c-0.55,0-0.95-0.21-1.21-0.63l-5.74-7.91
			c-0.18-0.25-0.37-0.42-0.57-0.53c-0.21-0.11-0.52-0.16-0.93-0.16H241.53z M241.53,41.17h3.13c0.88,0,1.64-0.1,2.31-0.32
			c0.66-0.21,1.22-0.51,1.67-0.9c0.45-0.39,0.78-0.85,1.01-1.38s0.34-1.13,0.34-1.78c0-1.32-0.43-2.31-1.3-2.98
			c-0.87-0.67-2.16-1-3.88-1h-3.27V41.17z"/>
		<path class="st1" d="M270.71,50.2c0.92,0,1.73-0.15,2.46-0.46c0.72-0.31,1.33-0.74,1.83-1.3c0.5-0.56,0.88-1.22,1.14-1.99
			c0.26-0.77,0.39-1.62,0.39-2.55V30.46h2.98V43.9c0,1.28-0.2,2.46-0.61,3.55c-0.41,1.09-0.99,2.04-1.74,2.83
			c-0.76,0.8-1.68,1.42-2.77,1.88c-1.09,0.45-2.32,0.68-3.67,0.68c-1.36,0-2.58-0.23-3.67-0.68c-1.09-0.45-2.02-1.08-2.78-1.88
			c-0.76-0.8-1.35-1.74-1.75-2.83c-0.41-1.09-0.61-2.27-0.61-3.55V30.46h2.98v13.43c0,0.93,0.13,1.78,0.39,2.55
			c0.26,0.77,0.64,1.44,1.14,1.99c0.5,0.56,1.11,0.99,1.84,1.3S269.8,50.2,270.71,50.2z"/>
		<path class="st1" d="M304.88,48.01c0.17,0,0.31,0.07,0.45,0.2l1.17,1.28c-0.91,1.05-2,1.87-3.3,2.46
			c-1.29,0.59-2.85,0.88-4.67,0.88c-1.6,0-3.04-0.28-4.34-0.83c-1.3-0.55-2.4-1.32-3.32-2.32c-0.92-0.99-1.63-2.19-2.13-3.57
			c-0.5-1.39-0.76-2.92-0.76-4.59s0.27-3.2,0.81-4.59s1.3-2.58,2.28-3.58s2.15-1.77,3.51-2.32s2.87-0.83,4.52-0.83
			c1.63,0,3.03,0.25,4.21,0.76c1.18,0.5,2.23,1.19,3.14,2.05l-0.97,1.37c-0.07,0.1-0.15,0.19-0.25,0.25c-0.09,0.07-0.23,0.1-0.4,0.1
			c-0.13,0-0.28-0.05-0.42-0.15c-0.15-0.1-0.33-0.22-0.53-0.36c-0.21-0.14-0.45-0.3-0.73-0.46c-0.28-0.16-0.61-0.32-0.99-0.46
			s-0.82-0.27-1.33-0.36c-0.5-0.1-1.09-0.15-1.75-0.15c-1.18,0-2.27,0.2-3.25,0.61c-0.98,0.41-1.83,0.99-2.54,1.74
			s-1.26,1.67-1.66,2.75c-0.4,1.08-0.59,2.29-0.59,3.63c0,1.38,0.2,2.61,0.59,3.69c0.4,1.08,0.94,1.99,1.62,2.74
			c0.68,0.75,1.5,1.32,2.43,1.71c0.94,0.39,1.95,0.59,3.03,0.59c0.66,0,1.25-0.04,1.78-0.12c0.52-0.08,1.01-0.2,1.46-0.36
			c0.45-0.16,0.86-0.37,1.25-0.63c0.39-0.25,0.77-0.55,1.17-0.9C304.55,48.09,304.72,48.01,304.88,48.01z"/>
		<path class="st1" d="M330.14,30.46v2.52h-7.15v19.61h-3V32.97h-7.18v-2.52H330.14z"/>
		<path class="st1" d="M341.48,52.58h-3V30.46h3V52.58z"/>
		<path class="st2" d="M372.59,41.53c0,1.66-0.26,3.18-0.79,4.56c-0.53,1.38-1.27,2.58-2.22,3.57c-0.96,1-2.11,1.77-3.45,2.32
			c-1.34,0.55-2.83,0.83-4.46,0.83s-3.11-0.27-4.45-0.83c-1.34-0.55-2.49-1.33-3.44-2.32c-0.96-1-1.7-2.19-2.22-3.57
			c-0.53-1.38-0.79-2.91-0.79-4.56s0.26-3.18,0.79-4.56c0.53-1.38,1.27-2.58,2.22-3.58c0.96-1,2.1-1.78,3.44-2.34
			c1.34-0.56,2.82-0.83,4.45-0.83s3.11,0.28,4.46,0.83c1.34,0.56,2.49,1.34,3.45,2.34c0.96,1,1.7,2.2,2.22,3.58
			C372.33,38.35,372.59,39.87,372.59,41.53z M369.52,41.53c0-1.36-0.19-2.58-0.56-3.66c-0.37-1.08-0.9-1.99-1.58-2.74
			c-0.68-0.75-1.5-1.32-2.47-1.72s-2.05-0.6-3.24-0.6c-1.18,0-2.26,0.2-3.23,0.6c-0.97,0.4-1.79,0.98-2.48,1.72
			c-0.68,0.75-1.21,1.66-1.58,2.74c-0.37,1.08-0.56,2.3-0.56,3.66s0.19,2.58,0.56,3.65c0.37,1.08,0.9,1.99,1.58,2.73
			c0.68,0.75,1.51,1.32,2.48,1.71c0.97,0.4,2.04,0.59,3.23,0.59c1.19,0,2.27-0.2,3.24-0.59c0.97-0.4,1.79-0.97,2.47-1.71
			c0.68-0.75,1.2-1.66,1.58-2.73C369.33,44.1,369.52,42.89,369.52,41.53z"/>
		<path class="st2" d="M383.45,30.56c0.13,0.07,0.28,0.2,0.44,0.41l12.82,16.68c-0.03-0.27-0.05-0.53-0.06-0.78
			c-0.01-0.25-0.01-0.5-0.01-0.73V30.46h2.62v22.13h-1.51c-0.24,0-0.44-0.04-0.59-0.12c-0.16-0.08-0.32-0.22-0.47-0.42l-12.8-16.66
			c0.02,0.26,0.04,0.51,0.05,0.76c0.01,0.25,0.02,0.47,0.02,0.68v15.76h-2.63V30.46h1.54C383.12,30.46,383.32,30.49,383.45,30.56z"
			/>
		<path class="st2" d="M412.56,52.52h-1.23v-9.06h1.23V52.52z"/>
		<path class="st2" d="M417.76,43.5c0.05,0.03,0.11,0.08,0.18,0.17l5.25,6.83c-0.01-0.11-0.02-0.22-0.03-0.32
			c0-0.1-0.01-0.2-0.01-0.3v-6.42h1.07v9.06h-0.62c-0.1,0-0.18-0.02-0.24-0.05c-0.07-0.03-0.13-0.09-0.19-0.17l-5.24-6.82
			c0.01,0.1,0.01,0.21,0.02,0.31c0,0.1,0.01,0.19,0.01,0.28v6.45h-1.07v-9.06h0.63C417.63,43.46,417.71,43.48,417.76,43.5z"/>
		<path class="st2" d="M434.73,50.65c0.07,0,0.13,0.03,0.18,0.08l0.48,0.52c-0.37,0.43-0.82,0.76-1.35,1.01
			c-0.53,0.24-1.17,0.36-1.91,0.36c-0.65,0-1.25-0.11-1.78-0.34c-0.53-0.23-0.98-0.54-1.36-0.95c-0.38-0.41-0.67-0.89-0.87-1.46
			c-0.21-0.57-0.31-1.19-0.31-1.88s0.11-1.31,0.33-1.88c0.22-0.57,0.53-1.06,0.93-1.47c0.4-0.41,0.88-0.73,1.44-0.95
			c0.56-0.23,1.17-0.34,1.85-0.34c0.67,0,1.24,0.1,1.72,0.31c0.48,0.21,0.91,0.49,1.29,0.84l-0.4,0.56c-0.03,0.04-0.06,0.08-0.1,0.1
			c-0.04,0.03-0.09,0.04-0.16,0.04c-0.06,0-0.11-0.02-0.17-0.06c-0.06-0.04-0.13-0.09-0.22-0.15c-0.08-0.06-0.18-0.12-0.3-0.19
			c-0.11-0.07-0.25-0.13-0.4-0.19c-0.16-0.06-0.34-0.11-0.54-0.15c-0.21-0.04-0.45-0.06-0.71-0.06c-0.48,0-0.93,0.08-1.33,0.25
			c-0.4,0.17-0.75,0.4-1.04,0.71c-0.29,0.31-0.52,0.68-0.68,1.13c-0.16,0.44-0.24,0.94-0.24,1.49c0,0.56,0.08,1.07,0.24,1.51
			c0.16,0.44,0.38,0.82,0.66,1.12s0.61,0.54,1,0.7c0.38,0.16,0.8,0.24,1.24,0.24c0.27,0,0.51-0.02,0.73-0.05
			c0.21-0.03,0.41-0.08,0.6-0.15c0.18-0.07,0.35-0.15,0.51-0.26c0.16-0.1,0.32-0.23,0.48-0.37
			C434.59,50.68,434.66,50.65,434.73,50.65z"/>
		<path class="st2" d="M439.52,50.37c0-0.34,0.06-0.66,0.19-0.96c0.12-0.3,0.29-0.56,0.51-0.78c0.21-0.22,0.47-0.4,0.77-0.53
			c0.3-0.13,0.62-0.2,0.96-0.2c0.34,0,0.66,0.07,0.96,0.2c0.3,0.13,0.56,0.31,0.78,0.53c0.22,0.22,0.39,0.48,0.52,0.78
			c0.12,0.3,0.19,0.62,0.19,0.96c0,0.35-0.06,0.67-0.19,0.97c-0.12,0.29-0.3,0.55-0.52,0.77c-0.22,0.22-0.48,0.39-0.78,0.52
			c-0.3,0.12-0.62,0.19-0.96,0.19c-0.34,0-0.66-0.06-0.96-0.19c-0.3-0.12-0.56-0.3-0.77-0.52c-0.21-0.22-0.38-0.48-0.51-0.77
			C439.58,51.05,439.52,50.72,439.52,50.37z"/>
	</g>
</g>
</svg>
